<svg xmlns="http://www.w3.org/2000/svg" width="720" height="420" viewBox="0 0 720 420">
  <rect width="720" height="420" rx="28" fill="#04100a"/>
  <rect x="34" y="34" width="652" height="352" rx="22" fill="#071f15" stroke="#d8b24a"/>
  <text x="64" y="80" fill="#f5d46b" font-family="Arial" font-size="24" font-weight="700">3. Salve API e opere</text>
  <rect x="64" y="112" width="262" height="220" rx="16" fill="#020805" stroke="#355c38"/>
  <text x="92" y="150" fill="#fff" font-family="Arial" font-size="18" font-weight="700">API Binance</text>
  <rect x="92" y="176" width="206" height="32" rx="8" fill="#06160f" stroke="#d8b24a"/>
  <text x="104" y="198" fill="#e8d9a7" font-family="Arial" font-size="14">API Key</text>
  <rect x="92" y="222" width="206" height="32" rx="8" fill="#06160f" stroke="#d8b24a"/>
  <text x="104" y="244" fill="#e8d9a7" font-family="Arial" font-size="14">Secret Key</text>
  <rect x="92" y="276" width="206" height="38" rx="10" fill="#d8b24a"/>
  <text x="126" y="301" fill="#06160f" font-family="Arial" font-size="15" font-weight="700">Salvar API</text>
  <path d="M344 222h70" stroke="#16c957" stroke-width="8" stroke-linecap="round"/>
  <path d="M398 194l34 28-34 28" fill="none" stroke="#16c957" stroke-width="8" stroke-linecap="round" stroke-linejoin="round"/>
  <rect x="456" y="112" width="200" height="220" rx="16" fill="#020805" stroke="#16c957"/>
  <text x="486" y="150" fill="#fff" font-family="Arial" font-size="18" font-weight="700">Dashboard</text>
  <rect x="486" y="176" width="140" height="42" rx="10" fill="#06160f" stroke="#d8b24a"/>
  <text x="502" y="203" fill="#eaffef" font-family="Arial" font-size="15">Saldo real USDT</text>
  <rect x="486" y="238" width="140" height="42" rx="10" fill="#0b5a2a" stroke="#16c957"/>
  <text x="518" y="265" fill="#fff" font-family="Arial" font-size="15" font-weight="700">Auto Trading</text>
  <text x="456" y="354" fill="#e8d9a7" font-family="Arial" font-size="15">Depois da compra, confira a venda limite aberta.</text>
</svg>
